<svg xmlns="http://www.w3.org/2000/svg" xmlns:xlink="http://www.w3.org/1999/xlink" width="380" height="372" fill="#000" fill-opacity="1" stroke="#000" stroke-dasharray="none" stroke-dashoffset="0" stroke-linecap="square" stroke-linejoin="miter" stroke-miterlimit="10" stroke-opacity="1" stroke-width="1" color-interpolation="auto" color-rendering="auto" font-family="'Dialog'" font-size="12" font-style="normal" font-weight="normal" image-rendering="auto" shape-rendering="auto" text-rendering="auto"><g><defs id="defs1"><clipPath id="clipPath1" clipPathUnits="userSpaceOnUse"><path d="M0 0 L380 0 L380 372 L0 372 L0 0 Z"/></clipPath><clipPath id="clipPath2" clipPathUnits="userSpaceOnUse"><path d="M95 -96 L475 -96 L475 276 L95 276 L95 -96 Z"/></clipPath></defs><g fill="#fff" stroke="#fff" shape-rendering="geometricPrecision" text-rendering="geometricPrecision" transform="translate(-95,96)"><rect width="380" height="372" x="95" y="-96" stroke="none" clip-path="url(#clipPath2)"/></g><g fill="#FC0" stroke="#FC0" shape-rendering="geometricPrecision" text-rendering="geometricPrecision" transform="matrix(1,0,0,1,-95,96)"><rect width="140" height="125" x="213.5" y="-80.5" stroke="none" clip-path="url(#clipPath2)"/></g><g stroke-linecap="butt" stroke-miterlimit="1.45" font-family="sans-serif" shape-rendering="geometricPrecision" text-rendering="geometricPrecision" transform="matrix(1,0,0,1,-95,96)"><text x="260.326" y="-55.863" stroke="none" clip-path="url(#clipPath2)" xml:space="preserve">Loading</text><text x="261.861" y="-27.598" stroke="none" clip-path="url(#clipPath2)" xml:space="preserve">Tidying</text><text x="242.402" y=".668" stroke="none" clip-path="url(#clipPath2)" xml:space="preserve">Normalization</text><text x="238.506" y="28.934" stroke="none" clip-path="url(#clipPath2)" xml:space="preserve">Transformation</text><rect width="140" height="125" x="213.5" y="-80.5" fill="none" clip-path="url(#clipPath2)"/></g><g fill="#FC0" stroke="#FC0" shape-rendering="geometricPrecision" text-rendering="geometricPrecision" transform="matrix(1,0,0,1,-95,96)"><rect width="140" height="98" x="110" y="101" stroke="none" clip-path="url(#clipPath2)"/></g><g stroke-linecap="butt" stroke-miterlimit="1.45" font-family="sans-serif" shape-rendering="geometricPrecision" text-rendering="geometricPrecision" transform="matrix(1,0,0,1,-95,96)"><text x="142.638" y="140.402" stroke="none" clip-path="url(#clipPath2)" xml:space="preserve">Visualization</text><text x="146.716" y="168.668" stroke="none" clip-path="url(#clipPath2)" xml:space="preserve">Exploration</text><rect width="140" height="98" x="110" y="101" fill="none" clip-path="url(#clipPath2)"/></g><g fill="#FC0" stroke="#FC0" shape-rendering="geometricPrecision" text-rendering="geometricPrecision" transform="matrix(1,0,0,1,-95,96)"><rect width="140" height="98" x="320" y="101" stroke="none" clip-path="url(#clipPath2)"/></g><g stroke-linecap="butt" stroke-miterlimit="1.45" font-family="sans-serif" shape-rendering="geometricPrecision" text-rendering="geometricPrecision" transform="matrix(1,0,0,1,-95,96)"><text x="346.198" y="126.269" stroke="none" clip-path="url(#clipPath2)" xml:space="preserve">Summarization</text><text x="361.359" y="154.535" stroke="none" clip-path="url(#clipPath2)" xml:space="preserve">Modelling</text><text x="340.087" y="182.801" stroke="none" clip-path="url(#clipPath2)" xml:space="preserve">Statistical testing</text><rect width="140" height="98" x="320" y="101" fill="none" clip-path="url(#clipPath2)"/></g><g stroke-linecap="butt" stroke-miterlimit="1.45" shape-rendering="geometricPrecision" text-rendering="geometricPrecision"><path fill="none" d="M244.9955 44.5 L231.8065 53.9927 L237.3455 54.0577 L237.3455 54.0577 L215.2833 89.8687 L212.7341 84.9508 L210.1875 101 L223.3766 91.5073 L217.8375 91.4423 L217.8375 91.4423 L239.8997 55.6313 L242.4489 60.5492 L244.9955 44.5 Z" clip-path="url(#clipPath2)" transform="matrix(1,0,0,1,-95,96)"/></g><g stroke-linecap="butt" stroke-miterlimit="1.45" shape-rendering="geometricPrecision" text-rendering="geometricPrecision"><path fill="none" d="M323.1205 44.5 L325.873 60.5152 L328.3589 55.5649 L351.1654 91.5413 L351.1654 91.5413 L345.6277 91.6774 L358.9375 101 L356.1851 84.9848 L353.6992 89.9351 L330.8927 53.9587 L330.8927 53.9587 L336.4304 53.8226 L323.1205 44.5 Z" clip-path="url(#clipPath2)" transform="matrix(1,0,0,1,-95,96)"/></g><g stroke-linecap="butt" stroke-miterlimit="1.45" shape-rendering="geometricPrecision" text-rendering="geometricPrecision"><path fill="none" d="M265 143.75 L250 150 L265 156.25 L262.15 151.5 L307.85 151.5 L305 156.25 L320 150 L305 143.75 L307.85 148.5 L262.15 148.5 L265 143.75 Z" clip-path="url(#clipPath2)" transform="matrix(1,0,0,1,-95,96)"/></g></g></svg>